<?xml version="1.0" standalone="no"?>
<!DOCTYPE svg PUBLIC "-//W3C//DTD SVG 20010904//EN"
 "http://www.w3.org/TR/2001/REC-SVG-20010904/DTD/svg10.dtd">
<svg version="1.0" xmlns="http://www.w3.org/2000/svg"
 width="628.000000pt" height="628.000000pt" viewBox="0 0 628.000000 628.000000"
 preserveAspectRatio="xMidYMid meet">
<metadata>
Created by potrace 1.11, written by Peter Selinger 2001-2013
</metadata>
<g transform="translate(0.000000,628.000000) scale(0.100000,-0.100000)"
fill="#000000" stroke="none">
<path d="M3119 6196 c-2 -2 -44 -6 -94 -9 -80 -6 -152 -14 -290 -32 -222 -30
-494 -106 -574 -160 -52 -34 -63 -65 -34 -97 54 -60 121 -71 478 -73 402 -3
511 -11 783 -56 237 -39 439 -110 508 -178 50 -49 68 -96 67 -176 -1 -71 -39
-202 -69 -236 -8 -8 -14 -20 -14 -25 0 -16 -109 -174 -178 -259 -82 -101 -345
-363 -482 -481 -132 -114 -306 -252 -480 -381 -74 -55 -145 -109 -157 -119
-11 -11 -41 -34 -65 -53 -88 -69 -187 -181 -194 -218 -13 -68 52 -93 169 -63
133 34 451 183 654 306 17 10 68 41 114 68 75 46 356 238 404 278 11 9 61 48
110 88 274 217 524 480 667 700 190 295 235 557 131 764 -56 111 -205 222
-389 292 -69 26 -230 69 -298 80 -21 3 -47 7 -58 9 -11 3 -46 7 -77 11 -31 3
-65 9 -76 11 -23 6 -550 14 -556 9z"/>
<path d="M4907 4154 c-1 -1 -40 -5 -85 -8 -46 -3 -109 -10 -140 -15 -32 -6
-73 -13 -92 -16 -179 -30 -382 -110 -495 -196 -287 -217 -319 -462 -108 -827
100 -173 218 -328 523 -687 420 -495 519 -622 580 -750 72 -149 72 -264 -2
-332 -24 -22 -112 -65 -163 -78 -16 -5 -32 -9 -35 -10 -3 -1 -25 -5 -50 -10
-25 -5 -47 -9 -50 -10 -4 -1 -69 -10 -140 -20 -22 -3 -75 -8 -220 -20 -48 -4
-214 -12 -420 -20 -69 -3 -174 -7 -235 -10 -60 -2 -180 -7 -265 -10 -313 -11
-440 -27 -479 -58 -25 -21 -40 -69 -30 -95 23 -61 115 -98 314 -127 42 -7 77
-12 123 -20 35 -5 251 -32 320 -40 28 -3 74 -7 100 -10 50 -6 74 -8 272 -22
141 -9 635 -9 747 1 478 41 790 177 926 403 150 249 91 502 -208 892 -47 62
-94 122 -105 134 -10 12 -69 83 -130 157 -123 148 -148 177 -360 420 -212 244
-254 297 -316 400 -73 120 -101 206 -99 300 1 79 22 120 85 161 48 32 167 73
240 83 25 3 54 8 65 10 21 4 90 11 215 21 94 8 292 15 560 20 345 7 446 20
504 66 52 41 22 107 -74 158 -67 36 -313 93 -498 116 -26 4 -54 8 -62 10 -8 2
-42 7 -75 10 -33 3 -70 8 -82 10 -77 13 -545 29 -556 19z"/>
<path d="M1869 3305 c-2 -1 -48 -6 -103 -10 -54 -4 -107 -8 -118 -10 -11 -3
-46 -7 -77 -10 -31 -3 -67 -8 -81 -10 -14 -3 -41 -7 -60 -10 -35 -6 -62 -10
-122 -20 -93 -16 -274 -60 -358 -87 -201 -65 -258 -116 -201 -182 53 -61 122
-68 661 -71 256 -2 485 -5 510 -8 25 -3 81 -8 125 -12 44 -4 82 -9 85 -10 3
-2 34 -6 70 -10 36 -4 68 -9 71 -11 4 -2 24 -6 45 -10 22 -3 53 -9 69 -14 17
-5 61 -19 99 -30 151 -46 266 -129 305 -220 29 -67 35 -164 15 -257 -8 -42
-19 -83 -24 -92 -5 -9 -23 -46 -40 -83 -152 -325 -600 -753 -1112 -1061 -200
-121 -427 -223 -544 -244 -62 -11 -145 -6 -161 9 -58 59 59 360 327 838 51 91
98 174 104 185 6 11 18 31 27 45 94 150 215 373 249 460 24 61 30 141 11 163
-18 22 -59 26 -110 11 -84 -25 -172 -111 -319 -313 -141 -194 -323 -452 -367
-520 -6 -9 -58 -88 -116 -176 -202 -307 -299 -470 -496 -835 -216 -400 -271
-561 -203 -598 25 -13 167 -11 250 3 333 59 918 280 1407 532 972 499 1604
1125 1812 1794 18 56 22 79 26 150 12 219 -126 411 -381 529 -120 55 -308 115
-434 136 -14 3 -32 7 -40 9 -8 3 -33 7 -55 10 -22 4 -51 8 -64 10 -14 3 -54 7
-90 11 -36 3 -74 8 -86 11 -23 5 -501 14 -506 8z"/>
</g>
</svg>
